/* XPM */
static char * blarg_xpm[] = {
"30 21  3 1",
"* g #000000",
", g #aaaaaa",
"  g #ffffff",
"                              ",
"                              ",
"         ,***,    ,***,       ",
"        ,*****,  ,*****,      ",
"       ,******,  ,*****,      ",
"       ******,   ,*****,      ",
"  ,***, ,****,    ,**,, ,***, ",
" ,*****,               ,*****,",
" *******     ,,,,,     ,,****,",
" ,*****,  ,,,,***,,,,    ,,**,",
"  ,***,  ,,*********,,,   ,,, ",
"        ,,****,,******,,,     ",
"       ,*****,, ,,******,,    ",
"      ,*******,,,,******,,    ",
"      ,*****************,,    ",
"      ,*****************,,    ",
"       ,***************,,     ",
"        ,,*****,,*****,,      ",
"         ,,,**,, ,**,,,       ",
"          ,,,,,  ,,,,         ",
"                              "
}

